<?xml version="1.0" encoding="UTF-8"?>
<svg id="Layer_1" data-name="Layer 1" xmlns="http://www.w3.org/2000/svg" viewBox="0 0 494.78 485.78">
  <defs>
    <style>
      .cls-1 {
        fill: #ee861e;
      }

      .cls-2 {
        fill: #f28d1e;
      }

      .cls-3 {
        fill: #f4f4f4;
      }

      .cls-4 {
        fill: #e66d16;
      }

      .cls-5 {
        fill: #ec761b;
      }

      .cls-6 {
        fill: #ee7d1e;
      }
    </style>
  </defs>
  <path class="cls-4" d="M91.54,56.23c1.82,8.75,3.75,13.52,13.11,15.49C23.63,137.46-.39,253.18,49.63,345.41c51.66,95.25,167.22,140.18,270.7,106.44,3.38,3.08.57,11.02,1.31,13.49.68,2.26,6.22,2.8,5.84,6.76C69.68,556.86-121.11,226.69,91.54,56.23Z"/>
  <path class="cls-2" d="M476.44,333.88c-3.89-1.91-8.65.59-11.96-.46-3.29-1.04-3.3-4.08-3.58-4.27-2.23-1.58-4.81,5.75-7.1,2.35,1.28-2.84,2.38-6.5,3.57-9.53l4.15,2.37c5.52-4.7,16.95-22.85,1.8-19.06,40.92-138.88-58.46-269.98-199-282.41,1.49-9.96-11.17-12.05-18.66-13.02s-11,3.84-9.93-9.62c178.23-7.36,308.77,165.05,240.71,333.65Z"/>
  <path class="cls-5" d="M424.01,380.35c7.86,1.3,8.64,9.92,16.68,11.92-30.9,38.02-65.87,64.28-113.2,79.84.38-3.96-5.17-4.5-5.84-6.76-.74-2.47,2.07-10.41-1.31-13.49,35.14-11.45,80.99-43.21,103.67-71.5Z"/>
  <path class="cls-1" d="M235.73.23c-1.07,13.46,2.72,8.69,9.93,9.62s20.15,3.06,18.66,13.02c-31.2-2.76-74.48,3.68-103.67,15.49-5.63-3.32-7.45-12.78-8.34-19.07C179.24,8.4,206.09,1.45,235.73.23Z"/>
  <path class="cls-6" d="M152.32,19.29c.89,6.29,2.71,15.74,8.34,19.07-14.6,5.91-43.49,23.21-56.01,33.37-9.36-1.97-11.28-6.74-13.11-15.49,21.07-16.89,35.15-26.58,60.77-36.94Z"/>
  <path class="cls-1" d="M453.8,331.5c2.28,3.41,4.86-3.92,7.1-2.35.28.2.29,3.23,3.58,4.27,3.31,1.05,8.07-1.45,11.96.46-9.82,24.32-19.62,38.54-35.75,58.39-8.04-2-8.82-10.62-16.68-11.92,9.05-11.29,23.82-35.64,29.79-48.86Z"/>
  <path class="cls-1" d="M463.33,305.28c15.14-3.79,3.72,14.36-1.8,19.06l-4.15-2.37c1.98-5.01,4.46-11.59,5.96-16.68Z"/>
  <path class="cls-3" d="M109.25,338.81c-18.32-4.97-33.58-24.39-33.29-43.65.09-6.11,5.26-17.74,4.88-21.43-.13-1.28-6.19-8.69-7.62-11.5-7.55-14.85-5.62-32,4.72-45.02,1.94-2.44,9.58-8.16,9.78-9.18.43-2.15-3.49-12.98-3.43-17.73.16-11.9,7.76-25.92,16.76-33.39,2.88-2.39,14.48-8.14,14.93-8.9,1.21-2.04.3-5.96.88-8.66,3.8-17.75,15.55-31.92,34.2-34.92,3.25-.52,11.69-.07,12.92-.79.48-.28,1.07-2.4,1.97-3.32,8.8-9.04,16.47-15.6,29.21-18.5,13.84-3.15,41.3-4.02,41.8,15.48v277.74c.82,32.9-48.19,30.14-65.61,14.28-2.5-2.28-5.37-7.97-7.98-8.74-3.29-.97-13.33,1.46-18.79.96-21.72-2.02-35.44-21.92-35.33-42.72ZM184.65,116.86c2.81,1.8,15.03-6.37,24.56-2.53,2.5,1.01,4.73,5.11,8.08,5.03,4.17-.1,4.89-4.03,2.42-7.19-7.52-9.61-23.4-9.91-32.75-2.83-2.17,1.64-5.36,5.57-2.31,7.52ZM150.84,137.58c-3.46.46-10.09,2.21-10.49,6.29-.76,7.8,7.84,2.01,11.36,1.68,14.2-1.36,16.52,12.68,21.5,13.22,10.87,1.18-1.08-14.24-5.48-17.25-5.27-3.61-10.56-4.78-16.89-3.93ZM119.36,175.8c-4.46,4.47-8.4,21.8-.84,23.25,6.77,1.3,4.78-8.97,5.27-12.27,1.81-12.16,17.84-4.46,17.84-11.98,0-8.02-17.7-3.58-22.27,1ZM206.85,181.63c-1.39-1.1-2.82-1.22-4.52-.96-12.5,1.95-33.59,14.04-43.46,22.13-6.58,5.39-8.93,14.46-2.58,21.04,6.96,7.21,28.75,3.31,26.99,21.15-.9,9.11-25.04,13.89-32.49,12.35-9.18-1.9-12.94-10.92-19.3-16.44-8.08-7-16.35-10.04-26.8-6.49-4.62,1.57-15.5,7.81-11.42,13.73,2.99,4.33,11.16-4.42,14.92-5.46,15.95-4.42,22.32,16.28,35.46,21.81,19.59,8.24,29.69-6.01,47.32-3.23,10.49,1.65,15.14,19.87,22.2,14.89,5.79-4.08-7.08-17.1-10.23-19.71-2.06-1.71-8.96-5.05-9.52-5.97-1.33-2.17-.3-7.81-.86-11.06-1.1-6.37-5.95-12.75-11.57-15.84-5.71-3.13-25.4-4.49-16.19-14.88,2.47-2.79,17.42-11.49,21.47-13.09,2.66-1.05,10.77-3.8,13.11-3.56,4.34.44,7.58,10.85,12.54,5.38,3.97-4.37-4.71-10.69-5.06-15.82ZM120.98,287.56c-3.09.89-6.26,9.38-6.69,12.46-1.8,12.97,3.74,22.83,15.34,28.54,4.32,2.13,15.51,3.78,16.77,4.68,1.09.78,2.71,9.11,3.85,11.64,7.06,15.71,25.1,20.85,40.84,15.25,3.49-1.24,11.92-5.55,11.1-10-1.44-7.92-14.87,2.07-19.59,2.7-17.03,2.26-32.69-14.15-22.48-29.62,9.74-14.75,25.56,1.88,38.03,1.19,5.08-.28,17.99-5.15,10.86-10.9-3.35-2.7-8.56,1.13-12.88,1-13.33-.43-23.01-14-38.97-2.59-9.31,6.65-3.8,14.85-20.32,9.44-9.48-3.1-14.44-9.93-13.01-20.15.43-3.06,8.06-16.78-2.85-13.65Z"/>
  <path class="cls-3" d="M252.41,87.22c33.6.76,72.23-2.98,103.98,9.82,55.63,22.42,52.3,94.93-2.69,114.7,9.82,4.59,19.88,5.75,29.81,10.71,52.99,26.45,55.12,104.9,6.56,136.49-39.62,25.78-92.55,19.13-137.66,20.23V87.22ZM290.54,202.8c19.76,3.16,38.75,2.7,51.73-14.4,17.6-23.19,14.12-68.24-16.53-78.59-5.3-1.79-35.2-6.92-35.2.64v92.35ZM290.54,220.68c1.63,35.81-2.16,73.49-.05,109.08.96,16.21,1.24,27.01,19.86,29,75.54,8.07,88.64-103.48,29.47-130.76-5.13-2.37-20.94-7.32-26.05-7.32h-23.24Z"/>
</svg>